<svg xmlns="http://www.w3.org/2000/svg" viewBox="0 0 400 300" width="400" height="300"><rect width="400" height="300" fill="#F1DCC5"/><rect y="215" width="400" height="85" fill="#C79B6E"/><line x1="170" y1="35" x2="230" y2="35" stroke="#A87B4F" stroke-width="5"/><line x1="175" y1="35" x2="178" y2="100" stroke="#F4EBDD" stroke-width="3"/><line x1="185" y1="35" x2="188" y2="110" stroke="#F4EBDD" stroke-width="3"/><line x1="195" y1="35" x2="198" y2="120" stroke="#F4EBDD" stroke-width="3"/><line x1="205" y1="35" x2="208" y2="100" stroke="#F4EBDD" stroke-width="3"/><line x1="215" y1="35" x2="218" y2="110" stroke="#F4EBDD" stroke-width="3"/><line x1="225" y1="35" x2="228" y2="120" stroke="#F4EBDD" stroke-width="3"/><ellipse cx="345" cy="165" rx="30" ry="40" fill="#7A8C5A"/><rect x="330" y="190" width="30" height="25" fill="#A87B4F"/><rect x="70" y="150" width="200" height="45" rx="10" fill="#C0683F"/><rect x="60" y="175" width="220" height="30" rx="8" fill="#C0683F" opacity="0.9"/><rect x="95" y="160" width="30" height="22" rx="5" fill="#7A7D4A"/><line x1="40" y1="220" x2="40" y2="110" stroke="#A87B4F" stroke-width="3"/><path d="M25 110 L55 110 L48 90 L32 90 Z" fill="#7A7D4A"/></svg>
