<svg xmlns="http://www.w3.org/2000/svg" viewBox="0 0 400 300" width="400" height="300"><rect width="400" height="300" fill="#EFE3CF"/><rect y="215" width="400" height="85" fill="#8A5A3B"/><g stroke="#5C4033" stroke-width="3"><line x1="200" y1="70" x2="240.0" y2="70.0"/><line x1="200" y1="70" x2="234.6" y2="90.0"/><line x1="200" y1="70" x2="220.0" y2="104.6"/><line x1="200" y1="70" x2="200.0" y2="110.0"/><line x1="200" y1="70" x2="180.0" y2="104.6"/><line x1="200" y1="70" x2="165.4" y2="90.0"/><line x1="200" y1="70" x2="160.0" y2="70.0"/><line x1="200" y1="70" x2="165.4" y2="50.0"/><line x1="200" y1="70" x2="180.0" y2="35.4"/><line x1="200" y1="70" x2="200.0" y2="30.0"/><line x1="200" y1="70" x2="220.0" y2="35.4"/><line x1="200" y1="70" x2="234.6" y2="50.0"/></g><circle cx="200" cy="70" r="12" fill="#2F6B63"/><rect x="70" y="150" width="200" height="45" rx="10" fill="#C9962C"/><rect x="60" y="175" width="220" height="30" rx="8" fill="#C9962C" opacity="0.9"/><rect x="95" y="160" width="30" height="22" rx="5" fill="#2F6B63"/><line x1="75" y1="205" x2="69" y2="222" stroke="#5C4033" stroke-width="4"/><line x1="265" y1="205" x2="271" y2="222" stroke="#5C4033" stroke-width="4"/><line x1="40" y1="220" x2="40" y2="110" stroke="#5C4033" stroke-width="3"/><path d="M25 110 L55 110 L48 90 L32 90 Z" fill="#2F6B63"/></svg>
